# xmcd CD database file
#
# Track frame offsets:
#	150
#	25650
#	52575
#	69300
#	99440
#	121977
#	163161
#	184948
#	207410
#	241835
#	263838
#	297616
#	326584
#
# Disc length: 4714 seconds
#
# Revision: 0
# Processed by: cddbd v1.5.2PL0 Copyright (c) Steve Scherf et al.
# Submitted via: CDex 1.79
#
DISCID=b512680d
DTITLE=Various Artist - New Orleans artists against hunger and homelessness CD 1
DYEAR=2015
DGENRE=Jazz
TTITLE0=Dirty Dogen Brass Band - Splile to New Orleans
TTITLE1=Dirty Dogen Brass Band - It's all over now
TTITLE2=Dirty Dogen Brass Band - That's how you get killed before
TTITLE3=Dirty Dogen Brass Band - Black drawers
TTITLE4=Dirty Dogen Brass Band - Feet can't fail me now
TTITLE5=Neville Brothers - Hey pocky way - I walk on gilded splinters
TTITLE6=Neville Brothers - Voodoo
TTITLE7=Neville Brothers - Africa
TTITLE8=Neville Brothers - Yellow moon
TTITLE9=Neville Brothers - Tell it like it is
TTITLE10=Neville Brothers - Wake up
TTITLE11=Neville Brothers - Brother John - Iko iko
TTITLE12=Neville Brothers - Injuns comin' - Shake your tambourine
EXTD=YEAR: 2015
EXTT0=
EXTT1=
EXTT2=
EXTT3=
EXTT4=
EXTT5=
EXTT6=
EXTT7=
EXTT8=
EXTT9=
EXTT10=
EXTT11=
EXTT12=
PLAYORDER=
